<svg width="30" height="30" viewBox="0 0 30 30" fill="none" xmlns="http://www.w3.org/2000/svg">
<g clip-path="url(#clip0_60157_240)">
<path d="M8.35938 7.74219L19.1932 22.2247H21.6465L10.8126 7.74219H8.35938Z" fill="#FFEEEE"/>
<path d="M14.9824 0.165039C6.79841 0.165039 0.164062 6.79938 0.164062 14.9834C0.164062 23.1674 6.79841 29.8018 14.9824 29.8018C23.1664 29.8018 29.8008 23.1674 29.8008 14.9834C29.8008 6.79938 23.1664 0.165039 14.9824 0.165039ZM18.6152 23.3818L13.683 16.787L7.57851 23.3818H6.00941L12.9819 15.8495L6.05321 6.58501H11.3934L15.9357 12.6586L21.5575 6.58501H23.1266L16.6368 13.5964L23.9554 23.3818H18.6152Z" fill="#FFEEEE"/>
</g>
<defs>
<clipPath id="clip0_60157_240">
<rect width="30" height="30" fill="white"/>
</clipPath>
</defs>
</svg>
